<svg width="64" height="64" viewBox="0 0 64 64" fill="none" xmlns="http://www.w3.org/2000/svg">
<path d="M14.2862 47.8171C9.66051 43.6086 6.74881 37.8424 6.10807 31.6217C5.46733 25.4009 7.14254 19.1623 10.8132 14.0993C14.4839 9.03626 19.8924 5.50424 26.004 4.17893C32.1156 2.85361 38.5013 3.82803 43.9395 6.91579M5.3715 47.6358C2.14217 53.2945 1.0595 57.6865 2.8835 59.5131C5.65417 62.2811 14.3182 58.3665 24.3528 50.4118M35.8382 48.4011L26.3048 38.8678L47.4942 17.6785C49.223 15.9513 51.3893 14.7271 53.7608 14.1371L59.2088 12.7691C59.585 12.6754 59.9791 12.6805 60.3527 12.7841C60.7263 12.8876 61.0668 13.0861 61.3411 13.3601C61.6154 13.6341 61.8142 13.9744 61.9181 14.3479C62.022 14.7214 62.0275 15.1155 61.9342 15.4918L60.5715 20.9451C59.9796 23.3163 58.7535 25.4816 57.0248 27.2091L35.8382 48.4011Z" stroke="#1E1D1D" stroke-width="2" stroke-linecap="round" stroke-linejoin="round"/>
<path d="M26.3067 38.8679L18.4987 36.2679C18.316 36.2076 18.1519 36.1014 18.022 35.9595C17.8921 35.8177 17.8007 35.6449 17.7566 35.4577C17.7124 35.2704 17.717 35.075 17.7699 34.8901C17.8228 34.7052 17.9222 34.5369 18.0587 34.4013L20.7787 31.6813C21.9622 30.4983 23.4517 29.6682 25.0803 29.2839C26.709 28.8996 28.4124 28.9762 30 29.5053L34.2613 30.9213L26.3067 38.8679ZM35.84 48.4013L38.4427 56.2119C38.502 56.3951 38.6075 56.5598 38.7491 56.6902C38.8907 56.8207 39.0634 56.9125 39.2508 56.9567C39.4381 57.0009 39.6337 56.9961 39.8187 56.9427C40.0036 56.8893 40.1717 56.7892 40.3067 56.6519L43.0267 53.9293C44.2091 52.746 45.0389 51.2569 45.4232 49.6288C45.8075 48.0007 45.7312 46.2978 45.2027 44.7106L43.7867 40.4493L35.84 48.4013Z" stroke="#1E1D1D" stroke-width="2" stroke-linecap="round" stroke-linejoin="round"/>
</svg>
