<svg width="64" height="64" viewBox="0 0 64 64" fill="none" xmlns="http://www.w3.org/2000/svg">
<path d="M5 47C5 48.8565 5.7375 50.637 7.05025 51.9497C8.36301 53.2625 10.1435 54 12 54C13.8565 54 15.637 53.2625 16.9497 51.9497C18.2625 50.637 19 48.8565 19 47C19 45.1435 18.2625 43.363 16.9497 42.0503C15.637 40.7375 13.8565 40 12 40C10.1435 40 8.36301 40.7375 7.05025 42.0503C5.7375 43.363 5 45.1435 5 47Z" stroke="#1E1D1D" stroke-width="2" stroke-linecap="round" stroke-linejoin="round"/>
<path d="M22 62C21.0334 60.1876 19.5923 58.6719 17.831 57.6151C16.0696 56.5583 14.0541 56 12 56C9.9459 56 7.93042 56.5583 6.16905 57.6151C4.40767 58.6719 2.96663 60.1876 2 62M45 47C45 47.9193 45.1811 48.8295 45.5328 49.6788C45.8846 50.5281 46.4002 51.2997 47.0503 51.9497C47.7003 52.5998 48.4719 53.1154 49.3212 53.4672C50.1705 53.8189 51.0807 54 52 54C52.9193 54 53.8295 53.8189 54.6788 53.4672C55.5281 53.1154 56.2997 52.5998 56.9497 51.9497C57.5998 51.2997 58.1154 50.5281 58.4672 49.6788C58.8189 48.8295 59 47.9193 59 47C59 45.1435 58.2625 43.363 56.9497 42.0503C55.637 40.7375 53.8565 40 52 40C50.1435 40 48.363 40.7375 47.0503 42.0503C45.7375 43.363 45 45.1435 45 47Z" stroke="#1E1D1D" stroke-width="2" stroke-linecap="round" stroke-linejoin="round"/>
<path d="M62.0027 62C61.036 60.1876 59.595 58.6719 57.8336 57.6151C56.0723 56.5583 54.0568 56 52.0027 56C49.9486 56 47.9331 56.5583 46.1717 57.6151C44.4103 58.6719 42.9693 60.1876 42.0027 62M40.6667 22C39.5977 20.7456 38.2692 19.7382 36.7729 19.0474C35.2765 18.3566 33.6481 17.9988 32 17.9988C30.3519 17.9988 28.7235 18.3566 27.2271 19.0474C25.7308 19.7382 24.4023 20.7456 23.3333 22M24.1387 52.552C29.2461 54.4984 34.8938 54.4813 39.9893 52.504M16.9333 16C14.7445 18.0507 12.9998 20.5288 11.8072 23.2809C10.6146 26.033 9.99951 29.0006 10 32C10 32.6747 10.04 33.3333 10.1013 34M53.9013 34C53.96 33.3387 54.0027 32.6667 54.0027 32C54.0032 29.0006 53.3881 26.033 52.1955 23.2809C51.0029 20.5288 49.2582 18.0507 47.0693 16M25.0027 9C25.0027 9.91925 25.1837 10.8295 25.5355 11.6788C25.8873 12.5281 26.4029 13.2997 27.0529 13.9497C27.7029 14.5998 28.4746 15.1154 29.3239 15.4672C30.1732 15.8189 31.0834 16 32.0027 16C32.9219 16 33.8322 15.8189 34.6815 15.4672C35.5307 15.1154 36.3024 14.5998 36.9524 13.9497C37.6024 13.2997 38.118 12.5281 38.4698 11.6788C38.8216 10.8295 39.0027 9.91925 39.0027 9C39.0027 7.14348 38.2652 5.36301 36.9524 4.05025C35.6397 2.7375 33.8592 2 32.0027 2C30.1462 2 28.3657 2.7375 27.0529 4.05025C25.7402 5.36301 25.0027 7.14348 25.0027 9Z" stroke="#1E1D1D" stroke-width="2" stroke-linecap="round" stroke-linejoin="round"/>
</svg>
