<svg width="64" height="64" viewBox="0 0 64 64" fill="none" xmlns="http://www.w3.org/2000/svg">
<path d="M40.6835 39.2263C38.7449 45.653 33.1582 50.6303 26.3662 51.6183C22.4716 52.2039 18.493 51.4743 15.0595 49.545L9.26752 50.9957C7.79152 51.3623 6.45019 50.033 6.81552 48.5557L8.26752 42.7517C6.3431 39.3213 5.61374 35.3485 6.19419 31.4583C7.34086 23.6903 13.6702 17.4823 21.4635 16.5303C25.5115 16.0303 29.3409 16.897 32.5249 18.7383" stroke="#1E1D1D" stroke-width="2" stroke-linecap="round" stroke-linejoin="round"/>
<path d="M45.9921 12.2941C52.0428 13.0408 56.9681 17.8555 57.8508 23.8888C58.3062 26.9127 57.7394 30.0022 56.2401 32.6675L57.3681 37.1701C57.4338 37.4323 57.4305 37.707 57.3584 37.9674C57.2864 38.2279 57.148 38.4652 56.9569 38.6563C56.7659 38.8474 56.5285 38.9857 56.268 39.0578C56.0076 39.1298 55.7329 39.1332 55.4708 39.0675L50.9668 37.9408C48.3013 39.4396 45.2119 40.006 42.1881 39.5501C36.1548 38.6675 31.3388 33.7421 30.5948 27.6901C30.3291 25.605 30.5445 23.4866 31.2243 21.4976C31.9042 19.5086 33.0305 17.7016 34.517 16.2153C36.0034 14.729 37.8104 13.6029 39.7995 12.9232C41.7886 12.2435 43.907 12.0283 45.9921 12.2941Z" stroke="#1E1D1D" stroke-width="2" stroke-linecap="round" stroke-linejoin="round"/>
</svg>
