<svg width="64" height="64" viewBox="0 0 64 64" fill="none" xmlns="http://www.w3.org/2000/svg">
<path d="M16.2296 39.9974C15.191 37.6499 14.655 35.1111 14.6563 32.5441C14.6563 22.6694 22.4163 14.6641 31.9896 14.6641C41.5629 14.6641 49.3229 22.6721 49.3229 32.5467C49.3238 35.1128 48.7878 37.6507 47.7496 39.9974" stroke="#1E1D1D" stroke-width="2" stroke-linecap="round"/>
<path d="M31.9948 5.33203V7.9987M58.6615 31.9987H55.9948M7.99479 31.9987H5.32812M50.8481 13.14L48.9628 15.0254M15.0268 15.028L13.1415 13.1427M38.7068 51.4814C41.4001 50.6094 42.4828 48.1427 42.7868 45.6627C42.8775 44.9214 42.2668 44.3054 41.5201 44.3054H22.6001C22.4178 44.3025 22.2369 44.3383 22.0695 44.4105C21.902 44.4827 21.7518 44.5897 21.6288 44.7243C21.5058 44.8589 21.4127 45.0181 21.3559 45.1914C21.299 45.3647 21.2795 45.548 21.2988 45.7294C21.5975 48.204 22.3495 50.0147 25.2028 51.4814M38.7068 51.4814H25.2028M38.7068 51.4814C38.3841 56.668 36.8855 58.7214 32.0135 58.6627C26.8028 58.7587 25.6028 56.22 25.2028 51.4814" stroke="#1E1D1D" stroke-width="2" stroke-linecap="round" stroke-linejoin="round"/>
</svg>
