<svg width="64" height="64" viewBox="0 0 64 64" fill="none" xmlns="http://www.w3.org/2000/svg">
<path d="M53.3355 41.4733C51.7656 46.4601 48.6463 50.8162 44.4308 53.9085C40.2154 57.0008 35.1235 58.6681 29.8955 58.668C26.0323 58.6691 22.2233 57.7589 18.778 56.0114C15.3327 54.2638 12.3482 51.7281 10.0671 48.6104C7.78592 45.4926 6.2724 41.8807 5.6495 38.0681C5.02659 34.2554 5.31187 30.3496 6.48215 26.668M22.5301 10.668C19.1154 11.7422 15.9771 13.5508 13.3355 15.9666" stroke="#1E1D1D" stroke-width="2" stroke-linecap="round"/>
<path d="M58.4373 26.5259C57.0343 21.5281 54.3694 16.975 50.6988 13.3044C47.0282 9.63378 42.4751 6.96892 37.4773 5.56591C33.0933 4.34191 29.3359 8.14458 29.3359 12.6939V30.5446C29.3359 32.8193 31.1813 34.6646 33.4559 34.6646H51.3066C55.8586 34.6646 59.6613 30.9072 58.4373 26.5259Z" stroke="#1E1D1D" stroke-width="2"/>
</svg>
