<svg width="64" height="64" viewBox="0 0 64 64" fill="none" xmlns="http://www.w3.org/2000/svg">
<path d="M6.67188 34.6673C14.4852 25.3887 21.5839 20.046 24.8225 17.8513C25.8812 17.1327 27.2772 17.3673 28.0812 18.362C29.6082 20.2644 31.0799 22.2106 32.4945 24.198C33.5719 25.7073 35.8452 25.7553 37.0385 24.3367C42.5532 17.7873 50.0065 11.334 50.0065 11.334" stroke="#1E1D1D" stroke-width="2" stroke-linecap="round" stroke-linejoin="round"/>
<path d="M56.5013 15.0978C57.3867 10.7844 57.3773 6.98176 57.3027 5.19109C57.2927 4.88684 57.1675 4.59774 56.9523 4.38236C56.7372 4.16698 56.4482 4.04142 56.144 4.03109C52.8218 3.90766 49.4966 4.17663 46.2373 4.83243C45.2333 5.03776 44.9013 6.26576 45.624 6.98976L54.344 15.7098C55.0693 16.4338 56.296 16.1004 56.5013 15.0978ZM7.02267 59.9471C5.51867 59.8978 4.36667 58.9884 4.21467 57.4924C4.09333 56.3191 4 54.5764 4 52.0004C4 49.4244 4.096 47.6804 4.21333 46.5084C4.36667 45.0124 5.51867 44.1031 7.02267 44.0524C7.912 44.0231 9.10267 44.0004 10.6667 44.0004C12.2307 44.0004 13.4213 44.0231 14.3107 44.0538C15.8147 44.1031 16.9667 45.0124 17.1187 46.5084C17.2387 47.6818 17.3333 49.4244 17.3333 52.0004C17.3333 54.5764 17.2373 56.3204 17.12 57.4924C16.9667 58.9884 15.8147 59.8978 14.3107 59.9484C13.42 59.9778 12.2307 60.0004 10.6667 60.0004C9.10267 60.0004 7.912 59.9778 7.02267 59.9471ZM50.076 59.9124C48.3427 59.8058 47.1387 58.5551 47.0133 56.8231C46.8427 54.4751 46.6667 50.2231 46.6667 42.6671C46.6667 35.1111 46.8427 30.8591 47.0133 28.5111C47.1387 26.7791 48.3427 25.5271 50.076 25.4218C50.916 25.3698 51.9867 25.3338 53.3333 25.3338C54.68 25.3338 55.7507 25.3698 56.5907 25.4218C58.324 25.5284 59.528 26.7791 59.6533 28.5111C59.824 30.8591 60 35.1111 60 42.6671C60 50.2231 59.824 54.4751 59.6533 56.8231C59.528 58.5551 58.324 59.8071 56.5907 59.9124C55.7507 59.9644 54.6813 60.0004 53.3333 60.0004C51.9867 60.0004 50.916 59.9644 50.076 59.9124ZM28.6667 59.9364C26.9813 59.8631 25.7507 58.7364 25.6093 57.0564C25.464 55.3258 25.3333 52.5151 25.3333 48.0004C25.3333 43.4858 25.464 40.6751 25.6093 38.9444C25.7507 37.2644 26.9813 36.1378 28.6653 36.0644C29.7763 36.0187 30.8881 35.9974 32 36.0004C33.3893 36.0004 34.4827 36.0271 35.3333 36.0644C37.0187 36.1378 38.2493 37.2644 38.3907 38.9444C38.536 40.6751 38.6667 43.4858 38.6667 48.0004C38.6667 52.5151 38.536 55.3258 38.3907 57.0564C38.2493 58.7364 37.0187 59.8631 35.3347 59.9364C34.4827 59.9738 33.3893 60.0004 32 60.0004C30.8886 60.0031 29.7772 59.9817 28.6667 59.9364Z" stroke="#1E1D1D" stroke-width="2" stroke-linecap="round" stroke-linejoin="round"/>
</svg>
