<svg width="64" height="64" viewBox="0 0 64 64" fill="none" xmlns="http://www.w3.org/2000/svg">
<path d="M10.6719 40.5326C10.6719 34.8746 12.9195 29.4484 16.9203 25.4476C20.921 21.4468 26.3473 19.1992 32.0052 19.1992C37.6632 19.1992 43.0894 21.4468 47.0902 25.4476C51.0909 29.4484 53.3385 34.8746 53.3385 40.5326C53.3385 46.1905 51.0909 51.6167 47.0902 55.6175C43.0894 59.6183 37.6632 61.8659 32.0052 61.8659C26.3473 61.8659 20.921 59.6183 16.9203 55.6175C12.9195 51.6167 10.6719 46.1905 10.6719 40.5326Z" stroke="white" stroke-width="2"/>
<path d="M2.13281 23.4661C2.13281 17.8082 4.38043 12.382 8.3812 8.3812C12.382 4.38043 17.8082 2.13281 23.4661 2.13281C29.1241 2.13281 34.5503 4.38043 38.5511 8.3812C42.5519 12.382 44.7995 17.8082 44.7995 23.4661C44.7995 29.1241 42.5519 34.5503 38.5511 38.5511C34.5503 42.5519 29.1241 44.7995 23.4661 44.7995C17.8082 44.7995 12.382 42.5519 8.3812 38.5511C4.38043 34.5503 2.13281 29.1241 2.13281 23.4661Z" stroke="white" stroke-width="2"/>
<path d="M19.2031 23.4661C19.2031 17.8082 21.4507 12.382 25.4515 8.3812C29.4523 4.38043 34.8785 2.13281 40.5365 2.13281C46.1944 2.13281 51.6206 4.38043 55.6214 8.3812C59.6222 12.382 61.8698 17.8082 61.8698 23.4661C61.8698 29.1241 59.6222 34.5503 55.6214 38.5511C51.6206 42.5519 46.1944 44.7995 40.5365 44.7995C34.8785 44.7995 29.4523 42.5519 25.4515 38.5511C21.4507 34.5503 19.2031 29.1241 19.2031 23.4661Z" stroke="white" stroke-width="2"/>
</svg>
