<svg width="64" height="64" viewBox="0 0 64 64" fill="none" xmlns="http://www.w3.org/2000/svg">
<path d="M56 32C56 18.75 45.25 8 32 8C18.75 8 8 18.75 8 32C8 45.25 18.75 56 32 56C45.25 56 56 45.25 56 32Z" stroke="#FFFFFF" stroke-width="2" stroke-miterlimit="10"/>
<path d="M43.8321 18.8646L29.1821 24.7246C28.1759 25.127 27.262 25.7295 26.4958 26.4958C25.7295 27.262 25.127 28.1759 24.7246 29.1821L18.8646 43.8321C18.7918 44.0138 18.774 44.2129 18.8134 44.4046C18.8527 44.5964 18.9475 44.7724 19.0859 44.9108C19.2243 45.0492 19.4003 45.144 19.592 45.1833C19.7838 45.2226 19.9829 45.2048 20.1646 45.1321L34.8146 39.2721C35.8207 38.8697 36.7347 38.2671 37.5009 37.5009C38.2671 36.7347 38.8697 35.8207 39.2721 34.8146L45.1321 20.1646C45.2048 19.9829 45.2226 19.7838 45.1833 19.592C45.144 19.4003 45.0492 19.2243 44.9108 19.0859C44.7724 18.9475 44.5964 18.8527 44.4046 18.8134C44.2129 18.774 44.0138 18.7918 43.8321 18.8646ZM31.9983 34.9983C31.405 34.9983 30.825 34.8224 30.3316 34.4927C29.8383 34.1631 29.4538 33.6946 29.2267 33.1464C28.9996 32.5982 28.9402 31.995 29.056 31.4131C29.1717 30.8311 29.4575 30.2966 29.877 29.877C30.2966 29.4575 30.8311 29.1717 31.4131 29.056C31.995 28.9402 32.5982 28.9996 33.1464 29.2267C33.6946 29.4538 34.1631 29.8383 34.4927 30.3316C34.8224 30.825 34.9983 31.405 34.9983 31.9983C34.9983 32.794 34.6823 33.557 34.1196 34.1196C33.557 34.6823 32.794 34.9983 31.9983 34.9983Z" fill="#FFFFFF"/>
</svg>
