<svg width="64" height="64" viewBox="0 0 64 64" fill="none" xmlns="http://www.w3.org/2000/svg">
<path d="M28.5523 24.7773C27.3974 25.3289 26.3917 26.1495 25.6196 27.1703C24.8475 28.191 24.3316 29.3821 24.1152 30.6435C23.8988 31.9049 23.9882 33.1998 24.3758 34.4195C24.7635 35.6393 25.4382 36.7482 26.3431 37.6532C27.2481 38.5581 28.357 39.2328 29.5768 39.6205C30.7965 40.0081 32.0914 40.0975 33.3528 39.8811C34.6142 39.6647 35.8053 39.1488 36.826 38.3767C37.8468 37.6046 38.6674 36.5989 39.219 35.444" stroke="white" stroke-width="2" stroke-linecap="round" stroke-linejoin="round"/>
<path d="M37.6963 15.6241C35.9096 15.0041 33.9896 14.6641 31.9896 14.6641C22.4163 14.6641 14.6562 22.4241 14.6562 31.9974C14.6562 41.5707 22.4163 49.3307 31.9896 49.3307C41.5629 49.3307 49.3229 41.5707 49.3229 31.9974C49.3229 29.9974 48.9842 28.0774 48.3629 26.2907" stroke="white" stroke-width="2" stroke-linecap="round" stroke-linejoin="round"/>
<path d="M44.7521 8.57607C40.8397 6.44033 36.4522 5.32466 31.9948 5.33207C17.2668 5.33207 5.32812 17.2707 5.32812 31.9987C5.32812 46.7267 17.2668 58.6654 31.9948 58.6654C46.7228 58.6654 58.6615 46.7267 58.6615 31.9987C58.6691 27.5419 57.5539 23.1549 55.4188 19.2427M58.6615 5.33207L31.9948 31.9987" stroke="white" stroke-width="2" stroke-linecap="round" stroke-linejoin="round"/>
</svg>
