<svg width="44" height="44" viewBox="0 0 44 44" fill="none" xmlns="http://www.w3.org/2000/svg">
<path d="M36.2138 8.5415C36.3724 8.36021 36.4936 8.14947 36.5707 7.92131C36.6478 7.69315 36.6792 7.45204 36.6631 7.21174C36.6471 6.97145 36.5838 6.73668 36.477 6.52083C36.3702 6.30498 36.2219 6.11229 36.0406 5.95375C35.8593 5.79521 35.6486 5.67393 35.4204 5.59684C35.1922 5.51975 34.9511 5.48835 34.7108 5.50443C34.4705 5.52052 34.2358 5.58378 34.0199 5.6906C33.8041 5.79742 33.6114 5.94571 33.4528 6.127L24.0845 16.8337L16.1333 6.23333C15.9626 6.00564 15.7411 5.82083 15.4866 5.69355C15.232 5.56627 14.9513 5.5 14.6667 5.5H7.33333C6.99286 5.5 6.65912 5.59481 6.36949 5.77381C6.07987 5.9528 5.84581 6.20891 5.69355 6.51344C5.54129 6.81797 5.47683 7.15888 5.50741 7.49798C5.53799 7.83707 5.66238 8.16096 5.86667 8.43333L17.6678 24.167L7.78617 35.4603C7.62763 35.6416 7.50635 35.8524 7.42926 36.0805C7.35216 36.3087 7.32076 36.5498 7.33685 36.7901C7.35294 37.0304 7.4162 37.2652 7.52302 37.481C7.62984 37.6968 7.77813 37.8895 7.95942 38.0481C8.14071 38.2066 8.35145 38.3279 8.57961 38.405C8.80777 38.4821 9.04888 38.5135 9.28917 38.4974C9.52947 38.4813 9.76424 38.418 9.98009 38.3112C10.1959 38.2044 10.3886 38.0561 10.5472 37.8748L19.9155 27.1663L27.8667 37.7667C28.0374 37.9944 28.2589 38.1792 28.5134 38.3064C28.768 38.4337 29.0487 38.5 29.3333 38.5H36.6667C37.0071 38.5 37.3409 38.4052 37.6305 38.2262C37.9201 38.0472 38.1542 37.7911 38.3064 37.4866C38.4587 37.182 38.5232 36.8411 38.4926 36.502C38.462 36.1629 38.3376 35.839 38.1333 35.5667L26.3322 19.833L36.2138 8.5415Z" fill="white"/>
</svg>
