<svg width="44" height="44" viewBox="0 0 44 44" fill="none" xmlns="http://www.w3.org/2000/svg">
<path d="M37.9677 6.69926C37.9677 6.69926 41.5292 5.31051 41.2324 8.68319C41.1335 10.072 40.2431 14.9326 39.5506 20.19L37.1762 35.7639C37.1762 35.7639 36.9784 38.0454 35.1976 38.4422C33.4168 38.839 30.7457 37.0535 30.251 36.6567C29.8553 36.3591 22.8312 31.8952 20.3579 29.7129C19.6653 29.1177 18.8739 27.9273 20.4568 26.5386L30.8446 16.619C32.0318 15.4286 33.219 12.6511 28.2724 16.0238L14.422 25.4475C14.422 25.4475 12.8391 26.4394 9.87122 25.5467L3.44064 23.5627C3.44064 23.5627 1.06628 22.0748 5.12247 20.5868C15.0156 15.9245 27.1842 11.1631 37.9677 6.69926Z" fill="white"/>
</svg>
