<svg width="44" height="44" viewBox="0 0 44 44" fill="none" xmlns="http://www.w3.org/2000/svg">
<path d="M24.673 39.7786C33.2768 38.4879 39.875 31.0647 39.875 22.1016C39.875 12.2291 31.8725 4.22656 22 4.22656C12.1275 4.22656 4.125 12.2291 4.125 22.1016C4.125 31.0666 10.7232 38.4879 19.327 39.7786V27.3156H15.5687C15.3324 27.3156 15.1057 27.2217 14.9386 27.0546C14.7715 26.8875 14.6777 26.6609 14.6777 26.4246V23.0457C14.6777 22.5526 15.0773 22.1547 15.5687 22.1547H19.327L19.195 18.5926C19.195 16.8656 19.5158 14.0624 21.6553 12.5297C23.1513 11.4609 24.2642 11.2592 26.0498 11.2592C27.599 11.2592 28.6642 11.4132 29.3682 11.5159L29.7128 11.5617C29.7982 11.5729 29.8766 11.6148 29.9333 11.6796C29.99 11.7444 30.0211 11.8276 30.0208 11.9137V15.6537C30.0208 15.8609 29.8467 16.0204 29.645 16.0094H29.5753C29.3663 16.0167 28.2737 16.0626 27.346 16.0626C25.7143 16.0626 24.673 16.8069 24.673 19.2801V22.1547H28.6917C29.2417 22.1547 29.6615 22.6497 29.5717 23.1924L29.0583 26.5712C29.0236 26.7791 28.9164 26.968 28.7556 27.1043C28.5948 27.2405 28.3909 27.3154 28.1802 27.3156H24.673V39.7786Z" fill="white"/>
</svg>
