<svg width="44" height="44" viewBox="0 0 44 44" fill="none" xmlns="http://www.w3.org/2000/svg">
<path d="M33 5.5H11C7.88333 5.5 5.5 7.88333 5.5 11V33C5.5 36.1167 7.88333 38.5 11 38.5H33C36.1167 38.5 38.5 36.1167 38.5 33V11C38.5 7.88333 36.1167 5.5 33 5.5ZM22 16.5C25.1167 16.5 27.5 18.8833 27.5 22C27.5 25.1167 25.1167 27.5 22 27.5C18.8833 27.5 16.5 25.1167 16.5 22C16.5 18.8833 18.8833 16.5 22 16.5ZM28.9667 12.8333C28.9667 11.55 30.0667 10.6333 31.1667 10.6333C32.2667 10.6333 33.3667 11.7333 33.3667 12.8333C33.3667 13.9333 32.45 15.0333 31.1667 15.0333C29.8833 15.0333 28.9667 14.1167 28.9667 12.8333ZM33 34.8333H11C9.9 34.8333 9.16667 34.1 9.16667 33V22H12.8333C12.8333 27.1333 16.8667 31.1667 22 31.1667C27.1333 31.1667 31.1667 27.1333 31.1667 22H34.8333V33C34.8333 34.1 34.1 34.8333 33 34.8333Z" fill="white"/>
</svg>
