<svg width="217" height="85" viewBox="0 0 217 85" fill="none" xmlns="http://www.w3.org/2000/svg">
<path d="M31.4698 37.1392C30.4546 37.1392 29.6274 37.3567 28.9882 37.788C28.3452 38.2155 28.0256 38.7855 28.0256 39.498C28.0256 40.0305 28.176 40.4655 28.4806 40.803C28.7814 41.1442 29.413 41.4217 30.3681 41.6392L35.023 42.7642C36.933 43.2217 38.2603 43.8855 39.001 44.748C39.7455 45.6067 40.1215 46.7055 40.1215 48.0442C40.1215 49.4505 39.7756 50.643 39.0875 51.6142C38.3994 52.5817 37.467 53.3092 36.2901 53.7855C35.1132 54.258 33.7822 54.498 32.2932 54.498C29.6875 54.498 27.6496 53.9505 26.1757 52.848C24.7055 51.7492 23.9385 50.103 23.8633 47.9017H27.8263C27.8602 48.9067 28.2362 49.6905 28.9543 50.253C29.6762 50.8117 30.6952 51.0892 32.0187 51.0892C33.3422 51.0892 34.3838 50.8792 35.0906 50.4555C35.7975 50.0317 36.1472 49.3942 36.1472 48.5317C36.1472 47.9805 35.9592 47.553 35.5832 47.2417C35.2072 46.9305 34.5755 46.6455 33.6957 46.3905C32.8196 46.1317 31.3494 45.7717 29.2927 45.3105C27.4917 44.9092 26.1832 44.2717 25.3748 43.398C24.5702 42.5205 24.1678 41.3167 24.1678 39.798C24.1678 38.6242 24.4461 37.5817 25.0063 36.6667C25.5628 35.7517 26.4126 35.0317 27.5518 34.5105C28.6911 33.9892 30.0936 33.7305 31.7668 33.7305C33.2896 33.7305 34.6282 33.993 35.7787 34.5105C36.9255 35.0317 37.8242 35.7742 38.4671 36.738C39.1101 37.698 39.4485 38.8155 39.4861 40.098H35.5155C35.3313 38.1255 33.9852 37.1355 31.4735 37.1355L31.4698 37.1392Z" fill="#FFF56E"/>
<path d="M56.0083 53.9773L54.7374 49.916H47.443L46.0631 53.9773H41.709L48.759 34.2598H53.5304L60.4939 53.9773H56.0045H56.0083ZM53.5868 46.5073L51.1353 38.7035H51.0789L48.5409 46.5073H53.5868Z" fill="#FFF56E"/>
<path d="M78.3235 40.5446C78.3235 41.6959 78.0753 42.7534 77.579 43.7171C77.0827 44.6771 76.3683 45.4384 75.4396 46.0046C74.5146 46.5746 73.428 46.8559 72.1721 46.8559H67.2766V53.9734H63.1406V34.2559H72.1721C74.0822 34.2559 75.5825 34.8259 76.6766 35.9584C77.7745 37.0909 78.3235 38.6171 78.3235 40.5446ZM74.1875 40.3834C74.1875 39.4121 73.9093 38.7109 73.349 38.2909C72.7888 37.8671 71.9052 37.6571 70.6945 37.6571H67.2804V43.4546H71.2133C73.1986 43.4546 74.1913 42.4309 74.1913 40.3834H74.1875Z" fill="#FFF56E"/>
<path d="M89.1744 51.007C91.8177 51.007 93.1374 49.762 93.1374 47.272V34.2557H97.3524V47.2157C97.3524 49.5595 96.6643 51.3595 95.2844 52.6157C93.9083 53.872 91.8929 54.4982 89.2308 54.4982C86.7868 54.4982 84.8692 53.887 83.4818 52.6607C82.0981 51.4307 81.4062 49.627 81.4062 47.2457V34.252H85.6212V47.1595C85.6212 48.3332 85.9371 49.267 86.5687 49.9645C87.2042 50.6582 88.0765 51.0032 89.1782 51.0032L89.1744 51.007Z" fill="#FFF56E"/>
<path d="M113.465 47.9921V34.2559H117.319V53.9734H113.19L105.121 39.9109H105.065V53.9734H101.211V34.2559H105.558L113.408 47.9921H113.465Z" fill="#FFF56E"/>
<path d="M129.91 54.498C128.071 54.498 126.435 54.108 125.007 53.3355C123.574 52.5555 122.45 51.3855 121.63 49.8292C120.814 48.273 120.408 46.368 120.408 44.118C120.408 41.868 120.811 40.008 121.615 38.4442C122.424 36.8767 123.544 35.6992 124.977 34.9117C126.413 34.128 128.056 33.7305 129.913 33.7305C131.771 33.7305 133.41 34.1355 134.839 34.9417C136.268 35.7442 137.388 36.9255 138.201 38.4817C139.009 40.0417 139.415 41.9167 139.415 44.1142C139.415 46.3117 139.005 48.2505 138.185 49.818C137.37 51.3817 136.242 52.5517 134.801 53.3355C133.361 54.1117 131.73 54.498 129.913 54.498H129.91ZM135.275 44.118C135.275 41.9205 134.783 40.2217 133.801 39.0255C132.82 37.8217 131.511 37.2217 129.876 37.2217C128.24 37.2217 126.988 37.8217 126.007 39.0255C125.025 40.2255 124.533 41.9205 124.533 44.118C124.533 46.3155 125.018 48.0142 125.992 49.2105C126.966 50.4105 128.274 51.0067 129.91 51.0067C131.545 51.0067 132.846 50.4105 133.82 49.2105C134.79 48.0142 135.279 46.3155 135.279 44.118H135.275Z" fill="#FFF56E"/>
<path d="M148.5 49.196L152.802 34.2598H157.096L150.373 53.9773H146.44L139.773 34.2598H144.206L148.444 49.196H148.5Z" fill="#FFF56E"/>
<path d="M170.258 53.9773L168.987 49.916H161.693L160.313 53.9773H155.959L163.009 34.2598H167.78L174.744 53.9773H170.255H170.258ZM167.837 46.5073L165.385 38.7035H165.329L162.791 46.5073H167.837Z" fill="#FFF56E"/>
<path d="M29.5621 73.5703C29.0432 73.5703 28.6146 73.4841 28.2686 73.3116C27.9227 73.1353 27.6445 72.9253 27.4377 72.6853C27.2271 72.4453 27.0654 72.2241 26.9451 72.0216H26.8135V73.3828H25.4336V61.4766H26.8662V65.9541H26.9526C27.0654 65.7553 27.2271 65.5416 27.4302 65.3053C27.6332 65.0691 27.9039 64.8666 28.2461 64.6941C28.5845 64.5178 29.0206 64.4278 29.5546 64.4278C30.299 64.4278 30.957 64.6153 31.521 64.9903C32.085 65.3653 32.525 65.8941 32.8446 66.5766C33.1679 67.2553 33.3296 68.0578 33.3296 68.9841C33.3296 69.9103 33.1679 70.7278 32.8521 71.4141C32.5325 72.0966 32.0926 72.6291 31.5286 73.0078C30.9646 73.3828 30.3103 73.5703 29.5621 73.5703ZM29.3515 72.2953C29.893 72.2953 30.3554 72.1528 30.7314 71.8641C31.1074 71.5716 31.3932 71.1778 31.585 70.6753C31.7842 70.1766 31.882 69.6103 31.882 68.9728C31.882 68.3353 31.7842 67.7803 31.5925 67.2853C31.397 66.7903 31.115 66.4041 30.739 66.1228C30.363 65.8416 29.9005 65.6991 29.3515 65.6991C28.8026 65.6991 28.3401 65.8378 27.9641 66.1116C27.5918 66.3816 27.3098 66.7641 27.1106 67.2591C26.915 67.7503 26.821 68.3203 26.821 68.9691C26.821 69.6178 26.9188 70.2028 27.1106 70.7053C27.3098 71.2003 27.5956 71.5866 27.9716 71.8678C28.3514 72.1491 28.8101 72.2916 29.3515 72.2916V72.2953Z" fill="#FFF56E"/>
<path d="M41.003 64.5605V69.818C41.003 70.3393 40.9015 70.778 40.706 71.138C40.5067 71.4943 40.2398 71.7643 39.8976 71.9518C39.5554 72.1355 39.1757 72.2255 38.7546 72.2255C38.1304 72.2255 37.6416 72.0343 37.2806 71.648C36.9197 71.258 36.7392 70.7143 36.7392 70.0168V64.5643H35.3066V70.1443C35.3066 70.8943 35.4345 71.5205 35.6977 72.0193C35.9571 72.5143 36.3181 72.8855 36.7806 73.1368C37.2393 73.3843 37.7657 73.5043 38.3635 73.5043C39.0215 73.5043 39.6043 73.3318 40.1119 72.9868C40.4879 72.728 40.8075 72.3418 41.0594 71.8168V73.3843H42.4394V64.5643H41.0068L41.003 64.5605Z" fill="#FFF56E"/>
<path d="M47.8728 73.5779C47.2674 73.5779 46.7222 73.4879 46.2372 73.3041C45.7559 73.1166 45.3611 72.8429 45.0528 72.4829C44.7445 72.1191 44.5452 71.6691 44.4512 71.1404L45.8161 70.8816C45.9289 71.3766 46.162 71.7441 46.5117 71.9841C46.8613 72.2204 47.3125 72.3366 47.8577 72.3366C48.4744 72.3366 48.9632 72.2091 49.3317 71.9466C49.6964 71.6804 49.8806 71.3654 49.8806 70.9941C49.8806 70.6866 49.7678 70.4316 49.5422 70.2291C49.3241 70.0266 48.997 69.8766 48.5721 69.7829L47.1057 69.4304C46.2936 69.2429 45.692 68.9504 45.2972 68.5491C44.9061 68.1441 44.7106 67.6304 44.7106 67.0116C44.7106 66.5091 44.846 66.0629 45.1242 65.6766C45.4062 65.2866 45.7935 64.9829 46.2823 64.7616C46.7786 64.5441 47.3389 64.4316 47.9668 64.4316C48.5947 64.4316 49.1023 64.5291 49.5422 64.7204C49.9821 64.9154 50.3318 65.1816 50.5988 65.5266C50.8695 65.8679 51.0613 66.2579 51.1703 66.7079L49.8618 66.9741C49.7603 66.6254 49.5648 66.3179 49.2677 66.0516C48.9745 65.7816 48.5421 65.6466 47.9743 65.6466C47.4404 65.6466 47.0042 65.7704 46.6583 66.0141C46.3124 66.2616 46.1394 66.5654 46.1394 66.9366C46.1394 67.2704 46.2597 67.5366 46.5004 67.7354C46.741 67.9341 47.1057 68.0916 47.6058 68.2041L48.9594 68.5229C49.7753 68.7179 50.3732 69.0104 50.7605 69.4041C51.1477 69.8016 51.3395 70.3079 51.3395 70.9191C51.3395 71.4404 51.1929 71.9016 50.8996 72.3029C50.6063 72.7041 50.2002 73.0191 49.6776 73.2479C49.1549 73.4691 48.5533 73.5854 47.869 73.5854L47.8728 73.5779Z" fill="#FFF56E"/>
<path d="M53.314 73.3834V64.5634H54.7465V73.3834H53.314ZM54.0284 63.0521C53.7614 63.0521 53.5321 62.9621 53.3403 62.7784C53.1448 62.5909 53.0508 62.3696 53.0508 62.1071C53.0508 61.8446 53.1485 61.6196 53.3403 61.4359C53.5321 61.2559 53.7652 61.1621 54.0284 61.1621C54.2916 61.1621 54.5397 61.2521 54.7353 61.4359C54.927 61.6196 55.0248 61.8409 55.0248 62.1071C55.0248 62.3734 54.927 62.5909 54.7353 62.7784C54.5397 62.9621 54.3066 63.0521 54.0284 63.0521Z" fill="#FFF56E"/>
<path d="M63.8867 65.9202C63.631 65.4215 63.27 65.0502 62.815 64.8027C62.3601 64.5515 61.8337 64.4277 61.2321 64.4277C60.5515 64.4277 59.9612 64.604 59.4611 64.9527C59.0889 65.2115 58.7806 65.5977 58.5362 66.1115L58.5287 64.559H57.1562V73.379H58.5888V68.1215C58.5888 67.5965 58.6866 67.1577 58.8783 66.8015C59.0776 66.4415 59.3446 66.1715 59.6867 65.9877C60.0251 65.8077 60.4087 65.714 60.8373 65.714C61.4652 65.714 61.954 65.909 62.3112 66.2915C62.6722 66.6777 62.8527 67.2177 62.8527 67.9077V73.3752H64.2777V67.7952C64.2777 67.0415 64.1461 66.4115 63.8867 65.9127V65.9202Z" fill="#FFF56E"/>
<path d="M74.141 68.8827C74.141 68.1027 74.032 67.4277 73.8214 66.8652C73.6071 66.299 73.3138 65.834 72.9453 65.474C72.5806 65.114 72.1633 64.8515 71.7008 64.6865C71.2345 64.514 70.7533 64.4277 70.2532 64.4277C69.4561 64.4277 68.7529 64.6227 68.1551 65.0127C67.5535 65.4027 67.091 65.9465 66.7601 66.6365C66.4293 67.3302 66.2676 68.1252 66.2676 69.0177C66.2676 69.9102 66.433 70.7127 66.7601 71.3915C67.0948 72.074 67.5685 72.6065 68.1852 72.9927C68.8056 73.379 69.5425 73.5702 70.4036 73.5702C71.0202 73.5702 71.5729 73.469 72.0655 73.274C72.5618 73.0715 72.9754 72.794 73.3025 72.4377C73.6372 72.0777 73.8703 71.669 73.9981 71.204L72.6107 70.9002C72.5054 71.204 72.3475 71.459 72.1407 71.6652C71.9301 71.8752 71.682 72.0327 71.3887 72.1415C71.0992 72.2465 70.7721 72.299 70.4111 72.299C69.8659 72.299 69.3884 72.179 68.9785 71.939C68.5725 71.699 68.2529 71.3502 68.031 70.8927C67.8355 70.484 67.7302 69.9927 67.7114 69.4302H74.1485V68.8752L74.141 68.8827ZM67.9972 67.1015C68.2002 66.674 68.4935 66.3327 68.8733 66.0777C69.253 65.8227 69.7117 65.6952 70.2457 65.6952C70.7796 65.6952 71.227 65.8227 71.5917 66.0777C71.9565 66.329 72.2347 66.6777 72.4227 67.124C72.5656 67.4577 72.6558 67.829 72.6934 68.234H67.7039C67.734 67.829 67.828 67.4502 67.9972 67.1015Z" fill="#FFF56E"/>
<path d="M79.1071 73.5779C78.5018 73.5779 77.9566 73.4879 77.4715 73.3041C76.9903 73.1166 76.5955 72.8429 76.2871 72.4829C75.9788 72.1191 75.7795 71.6691 75.6855 71.1404L77.0504 70.8816C77.1632 71.3766 77.3963 71.7441 77.746 71.9841C78.0957 72.2204 78.5469 72.3366 79.0921 72.3366C79.7087 72.3366 80.1975 72.2091 80.566 71.9466C80.9307 71.6804 81.115 71.3654 81.115 70.9941C81.115 70.6866 81.0022 70.4316 80.7766 70.2291C80.5585 70.0266 80.2314 69.8766 79.8065 69.7829L78.3401 69.4304C77.5279 69.2429 76.9263 68.9504 76.5315 68.5491C76.1405 68.1441 75.945 67.6304 75.945 67.0116C75.945 66.5091 76.0803 66.0629 76.3586 65.6766C76.6406 65.2866 77.0279 64.9829 77.5167 64.7616C78.013 64.5441 78.5732 64.4316 79.2011 64.4316C79.8291 64.4316 80.3367 64.5291 80.7766 64.7204C81.2165 64.9154 81.5662 65.1816 81.8331 65.5266C82.1039 65.8679 82.2956 66.2579 82.4047 66.7079L81.0962 66.9741C80.9947 66.6254 80.7991 66.3179 80.5021 66.0516C80.2088 65.7816 79.7764 65.6466 79.2087 65.6466C78.6747 65.6466 78.2386 65.7704 77.8927 66.0141C77.5467 66.2616 77.3738 66.5654 77.3738 66.9366C77.3738 67.2704 77.4941 67.5366 77.7347 67.7354C77.9754 67.9341 78.3401 68.0916 78.8402 68.2041L80.1938 68.5229C81.0097 68.7179 81.6075 69.0104 81.9948 69.4041C82.3821 69.8016 82.5739 70.3079 82.5739 70.9191C82.5739 71.4404 82.4272 71.9016 82.1339 72.3029C81.8407 72.7041 81.4346 73.0191 80.9119 73.2479C80.3893 73.4691 79.7877 73.5854 79.1034 73.5854L79.1071 73.5779Z" fill="#FFF56E"/>
<path d="M87.5759 73.5779C86.9705 73.5779 86.4253 73.4879 85.9403 73.3041C85.459 73.1166 85.0642 72.8429 84.7559 72.4829C84.4476 72.1191 84.2483 71.6691 84.1543 71.1404L85.5192 70.8816C85.632 71.3766 85.8651 71.7441 86.2148 71.9841C86.5645 72.2204 87.0157 72.3366 87.5609 72.3366C88.1775 72.3366 88.6663 72.2091 89.0348 71.9466C89.3995 71.6804 89.5837 71.3654 89.5837 70.9941C89.5837 70.6866 89.4709 70.4316 89.2453 70.2291C89.0273 70.0266 88.7001 69.8766 88.2753 69.7829L86.8089 69.4304C85.9967 69.2429 85.3951 68.9504 85.0003 68.5491C84.6093 68.1441 84.4137 67.6304 84.4137 67.0116C84.4137 66.5091 84.5491 66.0629 84.8273 65.6766C85.1093 65.2866 85.4966 64.9829 85.9854 64.7616C86.4817 64.5441 87.042 64.4316 87.6699 64.4316C88.2978 64.4316 88.8054 64.5291 89.2453 64.7204C89.6853 64.9154 90.0349 65.1816 90.3019 65.5266C90.5726 65.8679 90.7644 66.2579 90.8734 66.7079L89.5649 66.9741C89.4634 66.6254 89.2679 66.3179 88.9709 66.0516C88.6776 65.7816 88.2452 65.6466 87.6774 65.6466C87.1435 65.6466 86.7073 65.7704 86.3614 66.0141C86.0155 66.2616 85.8425 66.5654 85.8425 66.9366C85.8425 67.2704 85.9629 67.5366 86.2035 67.7354C86.4441 67.9341 86.8089 68.0916 87.3089 68.2041L88.6625 68.5229C89.4785 68.7179 90.0763 69.0104 90.4636 69.4041C90.8509 69.8016 91.0426 70.3079 91.0426 70.9191C91.0426 71.4404 90.896 71.9016 90.6027 72.3029C90.3094 72.7041 89.9033 73.0191 89.3807 73.2479C88.8581 73.4691 88.2565 73.5854 87.5721 73.5854L87.5759 73.5779Z" fill="#FFF56E"/>
<path d="M101.137 73.5779C100.325 73.5779 99.6184 73.3866 99.013 73.0079C98.4076 72.6216 97.9339 72.0854 97.5955 71.3991C97.2533 70.7129 97.0879 69.9179 97.0879 69.0179C97.0879 68.1179 97.2571 67.3079 97.5955 66.6179C97.9339 65.9279 98.4076 65.3879 99.013 65.0091C99.6184 64.6229 100.325 64.4316 101.137 64.4316C101.581 64.4316 101.995 64.4916 102.382 64.6116C102.773 64.7279 103.126 64.8966 103.439 65.1179C103.754 65.3429 104.029 65.6129 104.254 65.9316C104.476 66.2504 104.642 66.6104 104.747 67.0116L103.36 67.3154C103.299 67.0791 103.205 66.8691 103.078 66.6741C102.946 66.4754 102.788 66.3066 102.6 66.1679C102.412 66.0216 102.194 65.9091 101.95 65.8304C101.701 65.7479 101.431 65.7066 101.134 65.7066C100.547 65.7066 100.062 65.8604 99.6748 66.1604C99.2912 66.4641 99.0055 66.8654 98.8137 67.3641C98.6182 67.8629 98.5242 68.4179 98.5242 69.0216C98.5242 69.6254 98.622 70.1691 98.8137 70.6716C99.0055 71.1666 99.295 71.5679 99.6748 71.8679C100.055 72.1641 100.54 72.3141 101.134 72.3141C101.431 72.3141 101.701 72.2766 101.95 72.1979C102.201 72.1154 102.423 71.9991 102.615 71.8529C102.807 71.7029 102.969 71.5229 103.093 71.3204C103.22 71.1141 103.318 70.8891 103.382 70.6491L104.77 70.9529C104.664 71.3579 104.499 71.7216 104.277 72.0404C104.051 72.3591 103.781 72.6329 103.461 72.8691C103.141 73.0979 102.784 73.2741 102.389 73.4016C101.998 73.5254 101.577 73.5891 101.137 73.5891V73.5779Z" fill="#FFF56E"/>
<path d="M110.331 73.5779C109.519 73.5779 108.812 73.3866 108.206 73.0079C107.601 72.6216 107.127 72.0854 106.789 71.3991C106.447 70.7129 106.281 69.9179 106.281 69.0179C106.281 68.1179 106.45 67.3079 106.789 66.6179C107.127 65.9279 107.601 65.3879 108.206 65.0091C108.812 64.6229 109.519 64.4316 110.331 64.4316C111.143 64.4316 111.842 64.6266 112.455 65.0091C113.068 65.3916 113.538 65.9279 113.873 66.6179C114.211 67.3041 114.38 68.1066 114.38 69.0179C114.38 69.9291 114.211 70.7129 113.873 71.3991C113.538 72.0854 113.064 72.6254 112.455 73.0079C111.842 73.3866 111.135 73.5779 110.331 73.5779ZM110.331 72.3029C110.914 72.3029 111.399 72.1529 111.79 71.8566C112.181 71.5566 112.47 71.1591 112.658 70.6604C112.846 70.1616 112.94 69.6104 112.94 69.0104C112.94 68.4104 112.846 67.8629 112.658 67.3604C112.47 66.8579 112.181 66.4529 111.79 66.1491C111.402 65.8491 110.917 65.6954 110.331 65.6954C109.744 65.6954 109.259 65.8491 108.872 66.1491C108.488 66.4529 108.203 66.8541 108.011 67.3529C107.815 67.8516 107.721 68.4066 107.721 69.0104C107.721 69.6141 107.819 70.1579 108.011 70.6604C108.203 71.1554 108.492 71.5566 108.872 71.8566C109.252 72.1529 109.737 72.3029 110.331 72.3029Z" fill="#FFF56E"/>
<path d="M123.092 65.9202C122.836 65.4215 122.475 65.0502 122.02 64.8027C121.565 64.5515 121.039 64.4277 120.437 64.4277C119.757 64.4277 119.166 64.604 118.666 64.9527C118.294 65.2115 117.986 65.5977 117.741 66.1115L117.734 64.559H116.361V73.379H117.794V68.1215C117.794 67.5965 117.892 67.1577 118.083 66.8015C118.283 66.4415 118.55 66.1715 118.892 65.9877C119.23 65.8077 119.614 65.714 120.042 65.714C120.67 65.714 121.159 65.909 121.516 66.2915C121.877 66.6777 122.058 67.2177 122.058 67.9077V73.3752H123.483V67.7952C123.483 67.0415 123.351 66.4115 123.092 65.9127V65.9202Z" fill="#FFF56E"/>
<path d="M128.916 73.5779C128.31 73.5779 127.765 73.4879 127.28 73.3041C126.799 73.1166 126.404 72.8429 126.096 72.4829C125.787 72.1191 125.588 71.6691 125.494 71.1404L126.859 70.8816C126.972 71.3766 127.205 71.7441 127.555 71.9841C127.904 72.2204 128.355 72.3366 128.901 72.3366C129.517 72.3366 130.006 72.2091 130.375 71.9466C130.739 71.6804 130.924 71.3654 130.924 70.9941C130.924 70.6866 130.811 70.4316 130.585 70.2291C130.367 70.0266 130.04 69.8766 129.615 69.7829L128.149 69.4304C127.337 69.2429 126.735 68.9504 126.34 68.5491C125.949 68.1441 125.754 67.6304 125.754 67.0116C125.754 66.5091 125.889 66.0629 126.167 65.6766C126.449 65.2866 126.836 64.9829 127.325 64.7616C127.822 64.5441 128.382 64.4316 129.01 64.4316C129.638 64.4316 130.145 64.5291 130.585 64.7204C131.025 64.9154 131.375 65.1816 131.642 65.5266C131.912 65.8679 132.104 66.2579 132.213 66.7079L130.905 66.9741C130.803 66.6254 130.608 66.3179 130.311 66.0516C130.017 65.7816 129.585 65.6466 129.017 65.6466C128.483 65.6466 128.047 65.7704 127.701 66.0141C127.355 66.2616 127.182 66.5654 127.182 66.9366C127.182 67.2704 127.303 67.5366 127.543 67.7354C127.784 67.9341 128.149 68.0916 128.649 68.2041L130.002 68.5229C130.818 68.7179 131.416 69.0104 131.803 69.4041C132.191 69.8016 132.382 70.3079 132.382 70.9191C132.382 71.4404 132.236 71.9016 131.943 72.3029C131.649 72.7041 131.243 73.0191 130.721 73.2479C130.198 73.4691 129.596 73.5854 128.912 73.5854L128.916 73.5779Z" fill="#FFF56E"/>
<path d="M140.054 64.5605V69.818C140.054 70.3393 139.952 70.778 139.757 71.138C139.557 71.4943 139.291 71.7643 138.948 71.9518C138.606 72.1355 138.226 72.2255 137.805 72.2255C137.181 72.2255 136.692 72.0343 136.331 71.648C135.97 71.258 135.79 70.7143 135.79 70.0168V64.5643H134.357V70.1443C134.357 70.8943 134.485 71.5205 134.748 72.0193C135.008 72.5143 135.369 72.8855 135.831 73.1368C136.29 73.3843 136.816 73.5043 137.414 73.5043C138.072 73.5043 138.655 73.3318 139.163 72.9868C139.539 72.728 139.858 72.3418 140.11 71.8168V73.3843H141.49V64.5643H140.058L140.054 64.5605Z" fill="#FFF56E"/>
<path d="M145.333 61.4766V73.3828H143.9V61.4766H145.333Z" fill="#FFF56E"/>
<path d="M151.277 72.1387C151.156 72.1612 151.025 72.1762 150.886 72.1949C150.746 72.2137 150.622 72.2174 150.525 72.2174C150.152 72.2174 149.885 72.1312 149.728 71.9587C149.57 71.7824 149.494 71.5049 149.494 71.1299V65.7712H151.318V64.5599H149.494V62.3887H148.069V64.5599H146.689V65.7712H148.069V71.2387C148.069 71.9474 148.276 72.4949 148.697 72.8887C149.115 73.2749 149.705 73.4662 150.468 73.4662C150.645 73.4662 150.825 73.4549 151.01 73.4362C151.198 73.4137 151.363 73.3837 151.51 73.3424L151.284 72.1387H151.277Z" fill="#FFF56E"/>
<path d="M153.056 73.3834V64.5634H154.489V73.3834H153.056ZM153.767 63.0521C153.5 63.0521 153.27 62.9621 153.079 62.7784C152.883 62.5909 152.789 62.3696 152.789 62.1071C152.789 61.8446 152.887 61.6196 153.079 61.4359C153.27 61.2559 153.503 61.1621 153.767 61.1621C154.03 61.1621 154.278 61.2521 154.474 61.4359C154.665 61.6196 154.763 61.8409 154.763 62.1071C154.763 62.3734 154.665 62.5909 154.474 62.7784C154.278 62.9621 154.045 63.0521 153.767 63.0521Z" fill="#FFF56E"/>
<path d="M163.629 65.9202C163.373 65.4215 163.012 65.0502 162.557 64.8027C162.102 64.5515 161.576 64.4277 160.974 64.4277C160.294 64.4277 159.703 64.604 159.203 64.9527C158.831 65.2115 158.523 65.5977 158.278 66.1115L158.271 64.559H156.898V73.379H158.331V68.1215C158.331 67.5965 158.429 67.1577 158.621 66.8015C158.82 66.4415 159.087 66.1715 159.429 65.9877C159.767 65.8077 160.151 65.714 160.579 65.714C161.207 65.714 161.696 65.909 162.053 66.2915C162.414 66.6777 162.595 67.2177 162.595 67.9077V73.3752H164.02V67.7952C164.02 67.0415 163.888 66.4115 163.629 65.9127V65.9202Z" fill="#FFF56E"/>
<path d="M170.04 76.8963C169.386 76.8963 168.814 76.8101 168.325 76.6376C167.833 76.4651 167.427 76.2288 167.103 75.9251C166.784 75.6213 166.543 75.2801 166.382 74.9013L167.604 74.3238C167.716 74.5263 167.871 74.7288 168.066 74.9351C168.258 75.1376 168.513 75.3063 168.833 75.4413C169.149 75.5838 169.555 75.6513 170.04 75.6513C170.762 75.6513 171.349 75.4751 171.803 75.1188C172.258 74.7626 172.484 74.2226 172.484 73.4951V71.8226H172.375C172.251 72.0213 172.085 72.2351 171.882 72.4713C171.679 72.7001 171.405 72.8988 171.059 73.0563C170.717 73.2176 170.284 73.3001 169.758 73.3001C169.036 73.3001 168.389 73.1276 167.822 72.7826C167.258 72.4376 166.81 71.9426 166.483 71.2901C166.16 70.6338 165.998 69.8501 165.998 68.9313C165.998 68.0126 166.156 67.2288 166.476 66.5576C166.799 65.8863 167.246 65.3613 167.814 64.9863C168.382 64.6113 169.04 64.4238 169.781 64.4238C170.307 64.4238 170.739 64.5101 171.082 64.6826C171.427 64.8551 171.702 65.0613 171.913 65.3013C172.119 65.5413 172.289 65.7626 172.413 65.9651H172.514V64.5588H173.902V73.5663C173.902 74.3426 173.729 74.9763 173.383 75.4638C173.037 75.9588 172.571 76.3188 171.988 76.5513C171.401 76.7801 170.751 76.8963 170.036 76.8963H170.04ZM169.995 72.0363C170.533 72.0363 170.991 71.9126 171.367 71.6613C171.743 71.4101 172.029 71.0501 172.221 70.5813C172.42 70.1126 172.518 69.5576 172.518 68.9088C172.518 68.2601 172.42 67.7163 172.228 67.2363C172.033 66.7526 171.751 66.3738 171.375 66.1038C170.999 65.8338 170.54 65.6988 169.995 65.6988C169.45 65.6988 168.972 65.8413 168.592 66.1226C168.216 66.4001 167.927 66.7788 167.731 67.2626C167.536 67.7463 167.442 68.2976 167.442 68.9126C167.442 69.5276 167.54 70.0938 167.739 70.5626C167.938 71.0313 168.224 71.3951 168.6 71.6576C168.98 71.9126 169.446 72.0401 169.995 72.0401V72.0363Z" fill="#FFF56E"/>
<path d="M181.34 8.11328C175.102 8.11328 170.041 13.1608 170.041 19.382C170.041 25.6033 175.102 30.6545 181.34 30.6545C187.578 30.6545 192.642 25.6033 192.642 19.382C192.642 13.1608 187.578 8.11328 181.34 8.11328ZM181.34 8.73953C187.239 8.73953 192.014 13.502 192.014 19.3858C192.014 25.2695 187.239 30.032 181.34 30.032C175.44 30.032 170.665 25.2695 170.665 19.3858C170.665 13.502 175.44 8.73953 181.34 8.73953Z" fill="#FFF56E"/>
<path d="M181.497 22.9249C180.828 22.9249 180.302 22.6924 179.937 22.2274C179.734 21.9687 179.591 21.5974 179.512 21.1324L176.662 21.3124C176.771 22.2799 177.125 23.0637 177.79 23.7312C178.456 24.3949 179.689 24.7324 181.449 24.7324C182.453 24.7324 183.295 24.5862 183.953 24.3012C184.599 24.0162 185.111 23.5962 185.472 23.0449C185.833 22.4974 186.017 21.8899 186.017 21.2412C186.017 20.6899 185.882 20.1874 185.611 19.7412C185.34 19.2987 184.904 18.9199 184.31 18.6162C183.701 18.3087 182.674 17.9974 181.257 17.6937C180.644 17.5662 180.264 17.4274 180.091 17.2737C179.899 17.1124 179.802 16.9212 179.802 16.7112C179.802 16.4374 179.915 16.2012 180.14 16.0137C180.358 15.8299 180.678 15.7399 181.091 15.7399C181.588 15.7399 181.986 15.8599 182.272 16.0962C182.539 16.3137 182.719 16.6512 182.813 17.1012L185.637 16.9362C185.487 15.9574 185.088 15.2299 184.445 14.7762C183.761 14.2924 182.742 14.0449 181.419 14.0449C180.336 14.0449 179.475 14.1837 178.858 14.4499C178.249 14.7162 177.79 15.0837 177.489 15.5412C177.189 15.9987 177.038 16.4937 177.038 17.0112C177.038 17.8062 177.328 18.4399 177.918 18.9537C178.512 19.4712 179.527 19.8949 180.941 20.2099C181.855 20.4087 182.426 20.6224 182.689 20.8587C182.96 21.1062 183.099 21.3724 183.099 21.6987C183.099 22.0249 182.953 22.3212 182.671 22.5687C182.392 22.8087 181.994 22.9324 181.494 22.9324L181.497 22.9249Z" fill="#FFF56E"/>
</svg>
